<svg xmlns="http://www.w3.org/2000/svg" width="138" height="25"><path d="M135.47 3.482a1.265 1.265 0 1 1 1.269 1.252 1.245 1.245 0 0 1-1.268-1.252Zm1.275 1.045a1.041 1.041 0 1 0-1.017-1.045 1.001 1.001 0 0 0 1.017 1.045Zm-.263-.334h-.217V2.758h.544c.333 0 .51.124.51.407a.377.377 0 0 1-.373.397l.41.634h-.247l-.377-.624h-.25v.621Zm.26-.81c.184 0 .334 0 .334-.234s-.164-.21-.314-.21h-.297v.443h.277ZM95.587 3.169a1.265 1.265 0 1 1 1.264 1.258 1.245 1.245 0 0 1-1.264-1.258Zm1.264 1.04a1.038 1.038 0 1 0-1-1.04 1.001 1.001 0 0 0 1 1.04Zm-.263-.333h-.22V2.451h.547c.333 0 .507.127.507.41a.374.374 0 0 1-.37.398l.407.63h-.244l-.377-.62h-.254l.004.607Zm.26-.807c.187 0 .35 0 .35-.234s-.16-.21-.313-.21h-.297v.467l.26-.023ZM14.424 1.09c.497 1.905.934 3.83 1.291 5.796.052.348-.073.698-.333.934-.18.215-.436.35-.715.378a1.308 1.308 0 0 1-1.017-.434c-.835-1.232-1.092-2.7-2.103-3.811a.898.898 0 0 0-.94-.194l-.238.237.184 17.783a1.425 1.425 0 0 0 1.131 1.111c.443-.157.77-.538.854-1l.06-1.002-.1-8.656c-.156-.637-1-.667-1.11-1.251.152-.332.43-.589.773-.715 1.132-.497 2.336-.814 3.417-1.391a1.869 1.869 0 0 1 1.052.1l.196.277.12 12.437c.1.417.22 1.001.755 1.091.182.2.199.5.04.718-.257.397-.734.417-1.111.454h-4.132a1.171 1.171 0 0 1-.834-.418c-.89.698-2.423.418-3.454.478-1.211-.137-2.72.333-3.79-.397-.18-.137-.14-.418-.12-.574.196-.398.794-.26.914-.758l.177-.554-.06-13.501-.064-4.232a.667.667 0 0 0-.617-.277c-.457.04-.734.517-.975.855-.534.954-.89 2.002-1.368 2.98-.16.32-.437.57-.774.694A1.195 1.195 0 0 1 .262 7.87c-.558-.697-.06-1.608 0-2.362l.934-4.292C1.313 1 1.433.703 1.69.643c.754-.28.914.774 1.628.573l9.254-.08c.557-.036.894-.91 1.548-.493l.304.447ZM71.116 1.317l.197.277.06 2.94.14 17.055c.026.502.323.95.775 1.171a.824.824 0 0 1 .096.718c-.217.574-.85.667-1.408.667l-3.87-.02a1.161 1.161 0 0 1-.855-.497.854.854 0 0 1-.02-.794c.397-.257.834-.514.874-1.052l-.02-7.942c-.06-.667.02-1.588-.06-2.205-.297.717.04 1.728-.754 2.145-.332.101-.692.042-.974-.16a2.496 2.496 0 0 1-.634-1.248c-.22-.22-.518-.06-.735.037-3.003 2.146-1.708 6.297-1.965 9.534-.043.667.814.417.89 1a1.131 1.131 0 0 1-.276.715c-.277.277-.734.26-1.091.297l-4.272-.037a.888.888 0 0 1-.614-.537.644.644 0 0 1 .08-.667c.257-.26.715-.2.835-.618l.02-.97-.08-8.957c-.04-.755-1.172-.695-1.075-1.509l.537-.477c1.232-.537 2.523-.934 3.734-1.488.458-.06.915-.06 1.172.357.12.667-.06 1.428.14 2.142.037.08.157.04.217.02.754-1.151 1.728-2.5 3.237-2.402.574.04 1.231.08 1.548.617l.08-.18-.06-3.337-.04-.02a3.454 3.454 0 0 0-.08-1.095c.04-.734-1.131-.774-.774-1.568 1.074-1.252 2.86-1.132 4.111-2.103.318-.074.652-.004.914.19ZM125.223 3.542l.667-.14s-1.001-2.222-1.412-3.357a3.38 3.38 0 0 1 1.002.08c.497.841 1.388 2.503 1.388 2.503s1.548-.874 2.336-1.291c.256.053.489.185.667.377l-2.376 2.109.698 1.969s1.668-2.37 2.516-3.501c.286.082.534.265.697.514-.334.617-.854 1.191-1.114 1.789 1 .08 2.025.04 3.02.12.286.286.512.627.667 1l-2.52.201-1.2 2.076 1.631-.36s1.271-.528 2.606-1.042c.225.31.388.66.477 1.031l-2.72 1.095-2.422.514a9.56 9.56 0 0 0-.834 1.271c2.162-.397 4.268-1.091 6.454-1.528.949 3.288.458 6.825-1.352 9.73-5.896 1.489-12.153-.397-18.247.418l-1.768.216c-1.252-1.528-1.886-3.393-2.223-5.339a12.5 12.5 0 0 1 .714-6.313c.177-.027 2.867-.267 2.867-.267l-1.669-2.003c.134-.331.344-.626.614-.86.865.9 2.483 2.74 2.483 2.74l.914-.08-2.84-3.238a4.845 4.845 0 0 1 1.172-1.191l2.403.437s-.02-1.288.02-2.002a5.423 5.423 0 0 1 1.588-.614c.477.854.834 1.768 1.351 2.62.615-1.002 1.152-2.103 1.706-3.177a.244.244 0 0 1 .26-.02l1.779 3.513Zm-1.786-1.154-1.274 2.42.757 2.485 1.115-.78.297-2.086c-.3-.688-.578-1.402-.895-2.04Zm-3.71.14v1.211l.594.14a8.139 8.139 0 0 0-.594-1.351Zm-3.117 1.448v.08c.634.638 1.909 2.056 1.909 2.056V4.513l-1.91-.537Zm9.677.567-.554.37.117.415.507-.47-.07-.315Zm-6.5.528.08 2.242.86-1.945-.94-.297Zm10.374.937-.804.094-1.261 2.002.817-.023 1.248-2.073Zm-4.955 1.465.1 2.303 1.729-2.206c.105-.134.176-.292.207-.46l-.334-1.038-1.702 1.401Zm-3.73-.3-.538 1.075 1.028 1.184a26.972 26.972 0 0 0-.494-2.259h.003Zm2.422.974-.668.334.04.918.544.187.084-1.439ZM117 8.264l-.944 1.432 1.902.737 1.565-1.365-.594-.637L117 8.264Zm-3.88.287 1.638.758.514-.851-2.153.093Zm14.111 1.065-.874 1.431 1.001-.093.888-1.465-1.015.127Zm-6.674.3-2.98 2.443-1.428.057a8.43 8.43 0 0 0 .778-1.002 12.55 12.55 0 0 0-1.632-.647l-1.051 1.412a3.604 3.604 0 0 0-.975.12c-.08 1.171.177 2.262.398 3.337.1.28.18.754.594.714 2.94 0 5.7.457 8.599.754v-4.428a6.55 6.55 0 0 0-.724-1.071l-1.335.79-2.463.02c-.02-.04 2.026-1.17 2.96-1.785-.263-.26-.424-.557-.74-.714Zm-7.127.057c-.15.448-.191.925-.12 1.391.236-.377.807-1.13.807-1.13l-.687-.261Zm20.98.597-1.052.297c.277.557.915 1.669.915 1.669l-1.272.04-1.134-1.335-1.816.404.507.947-.914.107-.727-.93s-2.6.753-3.871 1.15l-.08.12c.02 1.429.12 2.84.277 4.208l.12.297c2.422.458 4.865.578 7.425.718l.24-.1a12.213 12.213 0 0 0 1.468-3.237c.397-1.318.497-3.124-.087-4.355Z"/><path d="m40.813 1.216.14.358.06 7.625c.297.557.634-.317 1.001-.357a3.067 3.067 0 0 1 3.197.934c1.552 1.648 1.789 3.754 2.166 5.896l.06-.06c.237-2.462.734-5.062 2.977-6.413a4.215 4.215 0 0 1 4.03.02c1.392 1.231 2.503 2.76 2.443 4.648.024.49-.036.98-.177 1.448-1.648.795-3.417 1.372-5.105 2.086-.397.297-.057.794 0 1.131.28.694.637 1.669 1.511 1.809.474.157 1.172.454 1.629.037.514-.474.117-1.886 1.268-1.529.468.081.875.365 1.115.774.297 1.335-.3 2.563-.935 3.574-1.171 1.001-2.8 1.192-4.308 1.001-2.94-.597-4.004-3.714-4.388-6.293-.24 2.362-.377 5.222-2.98 6.173-1.588.438-3.374.12-4.488-1-.137-.201-.177-.518-.454-.618-.668.02-.668.754-1.001 1.151-.417.26-.854.668-1.388.497a1.385 1.385 0 0 1-.438-.477c-.557.618-1.371.417-2.125.457l-3.004-.04a.924.924 0 0 1-.774-.634c-.056-.357.334-.517.558-.637a2.596 2.596 0 0 0 .397-1.605 62.402 62.402 0 0 0-.734-7.785c-.16-.518-.297-1.112-.755-1.449-.333-.12-.577.137-.794.297l-.223.4.02 9.194c.12.437.297.931.794 1.091.118.17.141.388.06.578-.557.814-1.709.417-2.483.514-.97-.137-2.52.397-3.177-.534a.5.5 0 0 1 .24-.638c.474-.116.595-.667.735-1.03l-.08-9.611a1.061 1.061 0 0 0-.895-.558c-.417.02-.734.397-.95.718-.438.79-.18 1.668-.241 2.62l.08 6.91c-.02.594.577.774.834 1.132a.818.818 0 0 1-.437.834c-1.648.297-3.057.077-4.725.137-.377-.077-.814-.097-1.035-.494-.076-.16-.136-.437.04-.578.387-.152.68-.475.795-.874l.1-.517-.1-9.23c-.097-.738-1.232-.668-1.031-1.452.537-.667 1.408-.774 2.145-1.111.679-.22 1.336-.5 1.966-.834.477-.02 1.071-.1 1.291.397 0 .357-.14.854.237 1.034.557-.04.668-.717 1.111-1 .895-.755 2.423-.598 3.397-.141.474.28.668.754 1.002 1.135.634 0 .714-.798 1.17-1.095.875-.554 2.283-.397 3.118.14 1.511 1.232 1.511 3.217 1.945 4.946.418 2.36.631 4.75.637 7.147.08.474.06 1.252.668 1.409l.14.14.1-.2-.18-17.687c-.02-.667-.457-1.21-.894-1.648a.594.594 0 0 1 .14-.597c.97-.931 2.302-1.001 3.434-1.609.373-.434 1.19-.517 1.548-.057Zm9.91 10.188a9.484 9.484 0 0 0 .058 4.035c.1.177.16.497.437.477.537-.334 1.191-.437 1.628-.974.895-1.409-.157-2.94-.834-4.172-.514-.337-1.111.137-1.288.634Zm-8.322-.477c-.27.11-.488.315-.614.577-.934 2.003-1 4.128-.774 6.414.217.951.277 1.986 1.001 2.7.22.137.497-.06.698-.2 1.648-2.52 1.151-6.294.237-9.01-.147-.164-.227-.54-.548-.48ZM105.765 1.337l.06.894.176 18.564a.56.56 0 0 0 .378.497c.196.08.533.1.573.397.06.307-.014.624-.2.874a21.29 21.29 0 0 1-3.377 1.352c-.537.077-1.091.474-1.608.117-.297-.237.217-.694-.257-.835-.477.3-.814.915-1.372 1.055-1.231.237-2.462-.28-3.373-1.111-1.97-2.246-1.83-5.76-1.392-8.66a9.157 9.157 0 0 1 2.303-5.242 2.786 2.786 0 0 1 2.422-.668c.477.08.754.457 1.152.714a.264.264 0 0 0 .22-.176l-.02-4.339c-.14-.814-1.926-1-1.001-2.082.357-.22.874-.04 1.251-.24 1.131-.634 2.383-1.031 3.554-1.609a.737.737 0 0 1 .51.498Zm-5.7 9.63c-.357.1-.437.477-.574.754-.477 1.789-.874 3.795-.597 5.74.257 1.111.317 2.336 1.251 3.157a.52.52 0 0 0 .667-.12c1.172-2.223 1.035-5.103.478-7.565-.27-.714-.39-1.669-1.225-1.966Z"/><path d="M93.074 10.45c.453.75.764 1.579.914 2.443a76.478 76.478 0 0 1 1.045 8.552c.008.355.11.7.297 1.002.237.2.594.24.594.597a.784.784 0 0 1-.474.714c-1.432.257-3.077.12-4.589.12a1.001 1.001 0 0 1-.794-.577.52.52 0 0 1 .257-.668c.597-.24.557-.914.668-1.431.04-2.86-.598-5.736-1.392-8.42a1.578 1.578 0 0 0-.667-.854.52.52 0 0 0-.634.26l-.08.358.116 9.253c-.02.634.638.754.855 1.232.06.333-.257.594-.498.734-1.408.257-3.173.136-4.625.1a1.001 1.001 0 0 1-.774-.618c-.14.1-.357.357-.537.518a2.55 2.55 0 0 1-1.846.437c-.734-.16-1.25-.668-1.845-1.171h-.357c-1.115 1.07-2.76 1.688-4.231 1.03-1.232-.376-2.363-1.548-2.523-2.86-.317-1.744-.197-3.73 1.271-4.865 1.152-1.248 2.643-1.725 4.112-2.222a3.19 3.19 0 0 0 .06-2.186c-.2-.413-.334-.87-.815-1.09l-1.338-.071a.36.36 0 0 0-.333.237c.14.357.617.397.714.814.12.594.12 1.388-.357 1.846-.695.437-1.806.637-2.52.1-.617-.498-.777-1.192-.777-1.946-.02-1.211 1.054-2.085 2.045-2.483 1.432-.477 2.96-.417 4.508-.236a3.003 3.003 0 0 1 2.363 1.725c.537 1.431.694 3.04.874 4.608.14 1.785.217 3.694.317 5.5.025.2.151.373.334.457.317-.04.734 0 .774.377.139.316.214.656.22 1a.934.934 0 0 0 .735-.593l.18-.594-.1-9.344c-.06-.774-2.002-1.11-.638-1.885 1.112-.537 2.286-.954 3.377-1.552a1.485 1.485 0 0 1 1.092.2c.22.277.06.668.317.935.36-.14.36-.537.637-.778a1.952 1.952 0 0 1 1.845-.514c.921.34 1.703.976 2.223 1.809Zm-16.241 5.8c-1.429.814-1.032 2.62-1.072 3.97.14.535.297 1.232.931 1.429.48.17 1.015.01 1.322-.397.02-1.697-.06-3.394-.237-5.082-.19-.397-.704-.16-.944.08ZM133.662 19.443a11.616 11.616 0 0 1-2.76 2.72c-5.56-.08-10.662-1.589-16.084-1.849a1.211 1.211 0 0 1-.43-.57c4.23-.735 8.519-.334 12.707-.06 2.2.105 4.406-.042 6.574-.438l-.007.197ZM125.343 22.086c1.608.18 3.237.334 4.845.517-3.357 2.336-8.7 2.383-12.173.334-.951-.594-1.966-1.231-2.72-2.126.04-.116.237-.02.357-.08l2.303.2 7.388 1.155Z"/></svg>
